#!OML:ASF H:\BreakDance\Project 1\Capture day 1\Session 1\Male.ASF
:FULLY-SPECIFIED
:DEGREES
811
root -1.24788 15.7274 -13.6689 -497.287 -159.021 529.616
lowerback 8.04066 2.84649 -7.06973
upperback 4.614 3.17374 -4.29401
thorax 0.161101 1.47094 -0.742604
lowerneck -6.97968 -7.76298 -1.32591
upperneck -9.20382 -9.78591 16.5221
head -0.616537 -5.20195 4.9735
rclavicle -3.97569e-014 -1.98785e-014
rhumerus -30.3237 -13.3882 -78.646
rradius 38.3158
rwrist -20.2726
rhand -18.5002 321.829
rfingers 7.12502
rthumb 7.78753 -428.008
lclavicle -3.97569e-014 -1.98785e-014
lhumerus -12.321 -13.0983 69.9535
lradius 31.4167
lwrist 17.5621
lhand -35.721 330.994
lfingers 7.12502
lthumb -8.84057 0.788884
rfemur -62.9489 -18.3976 22.7363
rtibia 68.2054
rfoot -14.4425 -0.942409
rtoes -11.048
lfemur -42.105 6.22336 2.5613
ltibia 44.5638
lfoot -38.142 12.3048
ltoes -38.1834
812
root -1.25859 15.7643 -13.5501 -497.465 -157.893 529.665
lowerback 8.11559 2.73607 -7.04271
upperback 4.56172 3.01664 -4.32566
thorax 0.0740087 1.39602 -0.781528
lowerneck -7.03771 -7.63804 -1.22982
upperneck -9.41363 -9.60202 16.5417
head -0.688839 -5.12524 4.97647
rclavicle 2.06736e-014 7.95139e-015
rhumerus -29.4862 -12.916 -79.9668
rradius 38.0864
rwrist -19.7866
rhand -18.6313 321.767
rfingers 7.12502
rthumb 7.66106 -428.074
lclavicle 2.06736e-014 7.95139e-015
lhumerus -13.3162 -12.2792 70.9563
lradius 30.294
lwrist 17.8651
lhand -35.9999 331.37
lfingers 7.12502
lthumb -9.10972 1.15358
rfemur -65.0002 -17.8473 23.7411
rtibia 68.9235
rfoot -15.1298 -0.629858
rtoes -11.4059
lfemur -40.6892 6.20702 1.80297
ltibia 43.7873
lfoot -37.9786 12.2815
ltoes -37.7427
813
root -1.2719 15.7982 -13.428 -497.636 -156.733 529.734
lowerback 8.15375 2.54276 -7.14542
upperback 4.52461 2.74892 -4.23928
thorax 0.0157562 1.26203 -0.614504
lowerneck -7.15435 -7.42007 -1.3468
upperneck -9.58293 -9.28827 16.4959
head -0.743394 -4.97025 4.99501
rclavicle 3.33958e-014 7.95139e-015
rhumerus -28.5344 -12.0648 -81.1874
rradius 37.7393
rwrist -19.4099
rhand -18.7327 321.738
rfingers 7.12502
rthumb 7.5632 -428.106
lclavicle 3.33958e-014 7.95139e-015
lhumerus -14.5073 -11.4897 71.9178
lradius 29.422
lwrist 18.4209
lhand -36.2083 331.948
lfingers 7.12502
lthumb -9.31082 1.72229
rfemur -66.9856 -17.2091 24.7668
rtibia 69.3428
rfoot -15.7487 -0.250692
rtoes -11.9186
lfemur -39.2799 6.21609 0.982119
ltibia 43.0134
lfoot -37.8255 12.3011
ltoes -37.3785
814
root -1.28821 15.8283 -13.3032 -497.781 -155.573 529.804
lowerback 8.15319 2.30179 -7.28416
upperback 4.48616 2.42175 -4.08776
thorax -0.0220601 1.09727 -0.35294
lowerneck -7.30076 -7.14276 -1.53668
upperneck -9.73115 -8.89534 16.3653
head -0.795484 -4.76882 5.00104
rclavicle -3.81667e-014 8.90555e-014
rhumerus -27.573 -11.0688 -82.3306
rradius 37.3154
rwrist -19.1059
rhand -18.7305 321.788
rfingers 7.12502
rthumb 7.56526 -428.057
lclavicle -3.81667e-014 8.90555e-014
lhumerus -15.7084 -10.6979 72.87
lradius 28.6314
lwrist 19.0568
lhand -36.2964 332.69
lfingers 7.12502
lthumb -9.39583 2.46044
rfemur -68.9057 -16.5031 25.8496
rtibia 69.4615
rfoot -16.2836 0.273724
rtoes -12.3711
lfemur -37.9095 6.29764 0.120637
ltibia 42.2509
lfoot -37.6388 12.4252
ltoes -37.1769
815
root -1.30794 15.8532 -13.1761 -497.905 -154.432 529.86
lowerback 8.14336 2.19747 -7.15193
upperback 4.4419 2.28966 -4.14079
thorax -0.0504996 1.03541 -0.469711
lowerneck -7.44078 -6.96896 -1.22185
upperneck -9.96426 -8.66753 16.1307
head -0.891277 -4.6715 4.89186
rclavicle 3.02153e-014 2.54444e-014
rhumerus -26.8071 -10.9051 -83.5483
rradius 36.8845
rwrist -18.7194
rhand -18.5905 321.946
rfingers 7.12502
rthumb 7.70038 -427.894
lclavicle 3.02153e-014 2.54444e-014
lhumerus -16.5544 -10.712 73.6289
lradius 27.8007
lwrist 19.8652
lhand -36.2586 333.621
lfingers 7.12502
lthumb -9.35932 3.39279
rfemur -70.7307 -15.7518 27.0175
rtibia 69.2818
rfoot -16.7232 0.963766
rtoes -12.7054
lfemur -36.5765 6.46651 -0.749301
ltibia 41.509
lfoot -37.404 12.6768
ltoes -37.2088
816
root -1.33176 15.8724 -13.0466 -498.027 -153.341 529.892
lowerback 8.15528 2.30893 -6.6426
upperback 4.40302 2.45936 -4.48637
thorax -0.0718472 1.13122 -1.12537
lowerneck -7.73308 -6.96359 -0.0662078
upperneck -10.0356 -8.78979 15.3175
head -1.13115 -4.74522 4.95919
rclavicle 2.70347e-014 1.74931e-014
rhumerus -26.271 -11.9551 -84.8957
rradius 36.4961
rwrist -18.2167
rhand -18.3396 322.175
rfingers 7.12502
rthumb 7.94254 -427.656
lclavicle 2.70347e-014 1.74931e-014
lhumerus -16.8263 -11.6639 74.1857
lradius 26.7328
lwrist 20.6812
lhand -36.1046 334.644
lfingers 7.12502
lthumb -9.21073 4.42266
rfemur -72.4063 -14.9849 28.2902
rtibia 68.8096
rfoot -17.0751 1.81709
rtoes -12.8097
lfemur -35.2562 6.70609 -1.58138
ltibia 40.7917
lfoot -37.1455 12.948
ltoes -37.3432
817
root -1.35995 15.8857 -12.9149 -498.176 -152.312 529.921
lowerback 8.19075 2.44124 -6.03311
upperback 4.33465 2.65988 -4.83324
thorax -0.127361 1.24497 -1.84304
lowerneck -7.83262 -6.99064 1.02321
upperneck -10.3492 -8.88137 14.9448
head -1.28519 -4.84212 4.62794
rclavicle -7.63333e-014 7.95139e-014
rhumerus -25.8853 -13.2326 -86.1805
rradius 36.1207
rwrist -17.7034
rhand -18.043 322.409
rfingers 7.12502
rthumb 8.22888 -427.411
lclavicle -7.63333e-014 7.95139e-014
lhumerus -17.034 -12.6126 74.8185
lradius 25.5609
lwrist 21.3561
lhand -35.9109 335.687
lfingers 7.12502
lthumb -9.02387 5.47419
rfemur -73.8989 -14.2457 29.653
rtibia 68.0595
rfoot -17.3532 2.82098
rtoes -12.7154
lfemur -33.935 7.01097 -2.37766
ltibia 40.096
lfoot -36.864 13.136
ltoes -37.4652
